<?xml version="1.0" encoding="utf-8"?>
<!-- Generator: Adobe Illustrator 21.0.2, SVG Export Plug-In . SVG Version: 6.00 Build 0)  -->
<svg version="1.1" id="Layer_1" xmlns="http://www.w3.org/2000/svg" xmlns:xlink="http://www.w3.org/1999/xlink" x="0px" y="0px"
	 viewBox="0 0 34 34" style="enable-background:new 0 0 34 34;" xml:space="preserve">
<style type="text/css">
	.st0{fill:#FFFFFF;}
</style>
<g>
	<path class="st0" d="M17,0C7.6,0,0,7.8,0,17.4C0,25.1,4.9,31.7,11.6,34c0.8,0.2,1.2-0.4,1.2-0.8c0-0.4,0-1.8,0-3.2
		C8,30.9,7,27.8,7,27.8c-0.8-2-1.9-2.6-1.9-2.6c-1.5-1.1,0.1-1.1,0.1-1.1C7,24.3,7.9,26,7.9,26c1.5,2.7,4,1.9,4.9,1.4
		c0.2-1.1,0.6-1.9,1.1-2.3c-3.8-0.4-7.7-1.9-7.7-8.6c0-1.9,0.7-3.5,1.8-4.7c-0.2-0.4-0.8-2.2,0.2-4.6c0,0,1.4-0.5,4.7,1.8
		c1.4-0.4,2.8-0.6,4.3-0.6c1.4,0,2.9,0.2,4.3,0.6c3.2-2.3,4.7-1.8,4.7-1.8c0.9,2.4,0.3,4.2,0.2,4.6c1.1,1.2,1.7,2.8,1.7,4.7
		c0,6.7-4,8.2-7.8,8.6c0.6,0.5,1.2,1.6,1.2,3.2c0,2.3,0,4.2,0,4.8c0,0.5,0.3,1,1.2,0.8C29.1,31.7,34,25.1,34,17.4
		C34,7.8,26.4,0,17,0z"/>
	<path class="st0" d="M6.4,25c0,0.1-0.2,0.1-0.3,0.1C6,25,6,24.9,6,24.8s0.2-0.1,0.3-0.1C6.4,24.8,6.5,24.9,6.4,25L6.4,25z"/>
	<path class="st0" d="M7.1,25.8c-0.1,0.1-0.2,0-0.3-0.1c-0.1-0.1-0.1-0.3,0-0.4s0.2,0,0.3,0.1C7.2,25.6,7.2,25.7,7.1,25.8L7.1,25.8z
		"/>
	<path class="st0" d="M7.8,26.8c-0.1,0.1-0.3,0-0.4-0.2s-0.1-0.3,0-0.4s0.3,0,0.4,0.1C7.9,26.6,7.9,26.7,7.8,26.8L7.8,26.8z"/>
	<path class="st0" d="M8.7,27.8c-0.1,0.1-0.3,0.1-0.4-0.1c-0.1-0.1-0.2-0.3-0.1-0.4c0.1-0.1,0.3-0.1,0.4,0.1
		C8.8,27.5,8.8,27.7,8.7,27.8L8.7,27.8z"/>
	<path class="st0" d="M10,28.4c0,0.1-0.2,0.2-0.4,0.1s-0.3-0.2-0.3-0.4c0-0.1,0.2-0.2,0.4-0.1S10,28.2,10,28.4L10,28.4z"/>
	<path class="st0" d="M11.4,28.5c0,0.1-0.2,0.3-0.4,0.3s-0.4-0.1-0.4-0.3c0-0.1,0.2-0.3,0.4-0.3S11.4,28.3,11.4,28.5L11.4,28.5z"/>
	<path class="st0" d="M12.7,28.2c0,0.1-0.1,0.3-0.3,0.3s-0.4,0-0.4-0.2c0-0.1,0.1-0.3,0.3-0.3S12.6,28.1,12.7,28.2L12.7,28.2z"/>
</g>
</svg>
