<?xml version="1.0" encoding="utf-8"?>
<!-- Generator: Adobe Illustrator 21.0.2, SVG Export Plug-In . SVG Version: 6.00 Build 0)  -->
<svg version="1.1" id="Layer_1" xmlns="http://www.w3.org/2000/svg" xmlns:xlink="http://www.w3.org/1999/xlink" x="0px" y="0px"
	 viewBox="0 0 34 34" style="enable-background:new 0 0 34 34;" xml:space="preserve">
<style type="text/css">
	.st0{fill:#FFFFFF;}
</style>
<path class="st0" d="M17,0C7.6,0,0,7.6,0,17s7.6,17,17,17s17-7.6,17-17S26.4,0,17,0z M25.6,13.6c0,0.2,0,0.4,0,0.6
	c0,5.7-4.3,12.2-12.2,12.2c-2.4,0-4.7-0.7-6.6-1.9c0.3,0,0.7,0.1,1,0.1c2,0,3.9-0.7,5.3-1.8c-1.9,0-3.5-1.3-4-3
	c0.3,0.1,0.5,0.1,0.8,0.1c0.4,0,0.8-0.1,1.1-0.1c-2-0.4-3.4-2.1-3.4-4.2c0,0,0,0,0-0.1C8.2,15.8,8.8,16,9.5,16
	c-1.2-0.8-1.9-2.1-1.9-3.6c0-0.8,0.2-1.5,0.6-2.2c2.1,2.6,5.3,4.3,8.8,4.5c0-0.4,0-0.7,0-1.1c0-2.4,1.9-4.3,4.3-4.3
	c1.2,0,2.3,0.5,3.1,1.4c1-0.2,1.9-0.5,2.7-1c-0.3,1-1,1.8-1.9,2.4c0.9-0.1,1.7-0.3,2.5-0.7C27.1,12.2,26.4,13,25.6,13.6z"/>
</svg>
